<?xml version="1.0" encoding="UTF-8" standalone="no"?>
<svg
   xmlns:dc="http://purl.org/dc/elements/1.1/"
   xmlns:cc="http://creativecommons.org/ns#"
   xmlns:rdf="http://www.w3.org/1999/02/22-rdf-syntax-ns#"
   xmlns:svg="http://www.w3.org/2000/svg"
   xmlns="http://www.w3.org/2000/svg"
   viewBox="0 0 1365.3333 1024"
   height="1024"
   width="1365.3333"
   xml:space="preserve"
   id="svg2"
   version="1.1"><metadata
     id="metadata8"><rdf:RDF><cc:Work
         rdf:about=""><dc:format>image/svg+xml</dc:format><dc:type
           rdf:resource="http://purl.org/dc/dcmitype/StillImage" /></cc:Work></rdf:RDF></metadata><defs
     id="defs6"><clipPath
       id="clipPath20"
       clipPathUnits="userSpaceOnUse"><path
         id="path18"
         d="M 0,0 H 1024 V 768 H 0 Z" /></clipPath><clipPath
       id="clipPath32"
       clipPathUnits="userSpaceOnUse"><path
         id="path30"
         d="M 202.4336,543.9271 H 821.5664 V 683.3333 H 202.4336 Z" /></clipPath><clipPath
       id="clipPath46"
       clipPathUnits="userSpaceOnUse"><path
         id="path44"
         d="M 0,0 H 1024 V 768 H 0 Z" /></clipPath></defs><g
     transform="matrix(1.3333333,0,0,-1.3333333,0,1024)"
     id="g10"><g
       id="g12" /><g
       id="g14"><g
         clip-path="url(#clipPath20)"
         id="g16"><path
           id="path22"
           style="fill:#000000;fill-opacity:1;fill-rule:nonzero;stroke:none"
           d="M 0,768 H 1024 V 0 H 0 Z" /><path
           id="path24"
           style="fill:#ee220c;fill-opacity:1;fill-rule:nonzero;stroke:none"
           d="M 219.5859,683.3333 H 804.4141 V 543.9271 H 219.5859 Z" /></g></g><g
       id="g26"><g
         clip-path="url(#clipPath32)"
         id="g28"><g
           transform="translate(284,590)"
           id="g34"><text
             id="text38"
             style="font-variant:normal;font-weight:900;font-size:60px;font-family:Arial;-inkscape-font-specification:Arial-Black;writing-mode:lr-tb;fill:#ffffff;fill-opacity:1;fill-rule:nonzero;stroke:none"
             transform="scale(1,-1)"><tspan
               id="tspan36"
               y="0"
               x="0 40.02 86.688004 110.04 130.05 190.05 236.718 283.38599 333.366 356.71799 406.698">FBI WARNING</tspan></text>
</g></g></g><g
       id="g40"><g
         clip-path="url(#clipPath46)"
         id="g42"><g
           transform="translate(176,437)"
           id="g48"><text
             id="text52"
             style="font-variant:normal;font-weight:bold;font-size:40px;font-family:HelveticaNeue;-inkscape-font-specification:HelveticaNeue-Bold;writing-mode:lr-tb;fill:#ffffff;fill-opacity:1;fill-rule:nonzero;stroke:none"
             transform="scale(1,-1)"><tspan
               id="tspan50"
               y="0"
               x="0 11.8 25.120001 36.240002 57 81.440002 105.16 116.28 139.24001 154.08 177.03999 188.16 211.88 236.32001 250.39999 261.51999 282.28 305.23999 319.32001 330.44 353.39999 364.51999 400.76001 423.72 459.95999 484.39999 507.35999 522.91998 534.03998 558.47998 571.79999 582.91998 608.88 633.32001 646.64001 674.03998 685.15997">If you are not yet a member of SofA, </tspan></text>
</g><g
           transform="translate(136,383)"
           id="g54"><text
             id="text58"
             style="font-variant:normal;font-weight:bold;font-size:40px;font-family:HelveticaNeue;-inkscape-font-specification:HelveticaNeue-Bold;writing-mode:lr-tb;fill:#ffffff;fill-opacity:1;fill-rule:nonzero;stroke:none"
             transform="scale(1,-1)"><tspan
               id="tspan56"
               y="0"
               x="0 29.639999 55.560001 81.519997 105.96 135.60001 146.72 157.84 179.32001 203.03999 227.48 243.03999 257.12 268.23999 281.56 306 321.56 332.67999 358.64001 381.60001 405.32001 429.76001 454.20001 464.51999 475.64001 500.07999 513.40002 524.52002 551.20001 574.91998 599.35999 609.67999 620 642.96002">UESTC, short for School of Public </tspan></text>
</g><g
           transform="translate(136,330)"
           id="g60"><text
             id="text64"
             style="font-variant:normal;font-weight:bold;font-size:40px;font-family:HelveticaNeue;-inkscape-font-specification:HelveticaNeue-Bold;writing-mode:lr-tb;fill:#ffffff;fill-opacity:1;fill-rule:nonzero;stroke:none"
             transform="scale(1,-1)"><tspan
               id="tspan62"
               y="0"
               x="0">A</tspan></text>
<text
             id="text68"
             style="font-variant:normal;font-weight:bold;font-size:40px;font-family:HelveticaNeue;-inkscape-font-specification:HelveticaNeue-Bold;writing-mode:lr-tb;fill:#ffffff;fill-opacity:1;fill-rule:nonzero;stroke:none"
             transform="matrix(1,0,0,-1,27.4,0)"><tspan
               id="tspan66"
               y="0"
               x="0">ﬀ</tspan></text>
<text
             id="text72"
             style="font-variant:normal;font-weight:bold;font-size:40px;font-family:HelveticaNeue;-inkscape-font-specification:HelveticaNeue-Bold;writing-mode:lr-tb;fill:#ffffff;fill-opacity:1;fill-rule:nonzero;stroke:none"
             transform="matrix(1,0,0,-1,52.84,0)"><tspan
               id="tspan70"
               y="0"
               x="0 22.959999 33.279999 48.84 70.32 81.440002 104.4 128.12 152.56 163.67999 191.08 215.52 251.75999 262.07999 285.79999 296.12 317.60001 331.67999 347.23999 370.20001 384.28 394.60001 419.04001 442.76001 453.88 464.20001 487.92001 499.04001 528.67999 552.40002 562.71997 583.52002 606.47998 622.03998 643.52002 653.84003 667.91998 688.67999">airs and Administration in University </tspan></text>
</g><g
           transform="translate(136,276)"
           id="g74"><text
             id="text78"
             style="font-variant:normal;font-weight:bold;font-size:40px;font-family:HelveticaNeue;-inkscape-font-specification:HelveticaNeue-Bold;writing-mode:lr-tb;fill:#ffffff;fill-opacity:1;fill-rule:nonzero;stroke:none"
             transform="scale(1,-1)"><tspan
               id="tspan76"
               y="0"
               x="0 24.440001 37.759998 48.880001 74.800003 85.120003 108.08 131.03999 145.12 159.96001 184.39999 208.12 218.44 241.39999 252.52 278.48001 301.44 311.76001 334.72 358.44 381.39999 404.35999 415.48001 438.44 462.16 486.60001 497.72 517.71997 540.67999 563.64001 587.35999 611.08002 635.52002 645.84003 670.28003 694.71997 715.47998">of Electronic Science and Technology </tspan></text>
</g><g
           transform="translate(136,222)"
           id="g80"><text
             id="text84"
             style="font-variant:normal;font-weight:bold;font-size:40px;font-family:HelveticaNeue;-inkscape-font-specification:HelveticaNeue-Bold;writing-mode:lr-tb;fill:#ffffff;fill-opacity:1;fill-rule:nonzero;stroke:none"
             transform="scale(1,-1)"><tspan
               id="tspan82"
               y="0"
               x="0 24.440001 37.759998 48.880001 78.519997 102.24 112.56 136.28 159.24001 170.36">of China, </tspan></text>
</g><g
           transform="translate(176,168)"
           id="g86"><text
             id="text90"
             style="font-variant:normal;font-weight:bold;font-size:40px;font-family:HelveticaNeue;-inkscape-font-specification:HelveticaNeue-Bold;writing-mode:lr-tb;fill:#ffffff;fill-opacity:1;fill-rule:nonzero;stroke:none"
             transform="scale(1,-1)"><tspan
               id="tspan88"
               y="0"
               x="0 24.440001 34.759998 57.720001 80.68 102.16 125.12 136.24001 159.2 182.92 204.39999 228.12 242.96001 265.92001 277.04001 297.79999 322.23999 345.95999 361.51999 372.64001 397.07999 420.04001 435.60001 457.07999 481.51999 505.23999 528.20001 538.52002 549.64001 582.20001 592.52002 602.84003 613.15997 624.28003 648.71997 662.79999 684.28003">please ensure your personal will fts </tspan></text>
</g><g
           transform="translate(136,114)"
           id="g92"><text
             id="text96"
             style="font-variant:normal;font-weight:bold;font-size:40px;font-family:HelveticaNeue;-inkscape-font-specification:HelveticaNeue-Bold;writing-mode:lr-tb;fill:#ffffff;fill-opacity:1;fill-rule:nonzero;stroke:none"
             transform="scale(1,-1)"><tspan
               id="tspan94"
               y="0"
               x="0 13.32 37.759998 53.32 64.440002 78.519997 102.24 125.2 136.32001 159.28 183 205.96001 221.52 244.48 267.44 281.51999 304.48001 320.04001 330.35999 351.84 365.92001 376.23999 399.20001 420.67999 431.79999 456.23999 469.56 480.67999 494.76001 518.47998 541.44 552.56 575.52002 599.96002 610.28003 620.59998 643.56 668 690.96002">for the characteristics of the college.</tspan></text>
</g></g></g></g></svg>