<?xml version="1.0" encoding="UTF-8" standalone="no"?>
<svg
   xmlns:dc="http://purl.org/dc/elements/1.1/"
   xmlns:cc="http://creativecommons.org/ns#"
   xmlns:rdf="http://www.w3.org/1999/02/22-rdf-syntax-ns#"
   xmlns:svg="http://www.w3.org/2000/svg"
   xmlns="http://www.w3.org/2000/svg"
   viewBox="0 0 1024 1365.3333"
   height="1365.3333"
   width="1024"
   xml:space="preserve"
   id="svg2"
   version="1.1"><metadata
     id="metadata8"><rdf:RDF><cc:Work
         rdf:about=""><dc:format>image/svg+xml</dc:format><dc:type
           rdf:resource="http://purl.org/dc/dcmitype/StillImage" /></cc:Work></rdf:RDF></metadata><defs
     id="defs6"><clipPath
       id="clipPath14"
       clipPathUnits="userSpaceOnUse"><path
         id="path12"
         d="M 0,0 H 1024 V 768 H 0 Z" /></clipPath><clipPath
       id="clipPath24"
       clipPathUnits="userSpaceOnUse"><path
         id="path22"
         d="M 0,0 H 1024 V 768 H 0 Z" /></clipPath><clipPath
       id="clipPath34"
       clipPathUnits="userSpaceOnUse"><path
         id="path32"
         d="M 697.3979,575.4674 V 57.67694 H 1025 V 575.4674 Z" /></clipPath><clipPath
       id="clipPath40"
       clipPathUnits="userSpaceOnUse"><path
         id="path38"
         d="M 0,0 H 1024 V 768 H 0 Z" /></clipPath><clipPath
       id="clipPath50"
       clipPathUnits="userSpaceOnUse"><path
         id="path48"
         d="M -1,122.8092 V 710.3231 H 701.4232 V 122.8092 Z" /></clipPath><clipPath
       id="clipPath56"
       clipPathUnits="userSpaceOnUse"><path
         id="path54"
         d="M 0,0 H 1024 V 768 H 0 Z" /></clipPath></defs><g
     clip-path="url(#clipPath14)"
     transform="matrix(0,1.3333333,1.3333333,0,0,0)"
     id="g10"><g
       id="g16" /><g
       id="g18"><g
         clip-path="url(#clipPath24)"
         id="g20"><path
           id="path26"
           style="fill:#333333;fill-opacity:1;fill-rule:nonzero;stroke:none"
           d="M 0,768 H 1024 V 0 H 0 Z" /></g></g><g
       id="g28"><g
         clip-path="url(#clipPath34)"
         id="g30"><g
           clip-path="url(#clipPath40)"
           id="g36"><path
             id="path42"
             style="fill:#ffffff;fill-opacity:1;fill-rule:nonzero;stroke:none"
             d="m 698.3979,487.4401 c 0,7.7035 6.3641,13.8938 14.0638,13.6205 47.0685,-1.6712 199.0263,-10.779 251.6565,-59.3176 v 128.105 c 0,4.0091 2.8589,5.6961 6.4476,3.9089 17.451,-8.6823 53.4342,-58.1928 53.4342,-112.1474 0,-39.0593 0,-250.6782 0,-289.7375 0,-53.9545 -35.9844,-103.46374 -53.4342,-112.14733 -3.59,-1.78599 -6.4476,-0.10161 -6.4476,3.90884 V 205.6009 c -6.8653,-6.3187 -15.401,-11.9936 -25.1858,-17.0458 -6.1058,-3.1516 -10.034,-9.3692 -10.034,-16.2398 v -20.5516 c 0,-61.11653 -57.9279,-93.08676 -115.1293,-93.08676 -46.6624,0 -71.3263,21.9366 -71.3262,63.42796 v 15.6353 c 0,5.4147 -4.5478,9.7299 -9.9535,9.4296 -7.8492,-0.4359 -14.6324,-0.6957 -20.0277,-0.8866 -7.6997,-0.2733 -14.0637,5.8768 -14.0638,13.5802 z m 70.2382,-355.4624 v -9.8728 c 0,-22.34212 7.6804,-37.2348 45.133,-37.23472 35.7363,0 88.9361,17.81592 88.9361,66.89352 v 5.6819 c 0,8.1626 -7.7603,14.0269 -15.6354,11.8877 -32.5692,-8.8448 -68.8203,-14.3787 -100.7835,-17.8114 -10.0156,-1.0754 -17.6502,-9.4719 -17.6502,-19.5442 z" /></g></g></g><g
       id="g44"><g
         clip-path="url(#clipPath50)"
         id="g46"><g
           clip-path="url(#clipPath56)"
           id="g52"><path
             id="path58"
             style="fill:#ffffff;fill-opacity:1;fill-rule:nonzero;stroke:none"
             d="M 0,372.5934 C 4.021973e-5,207.0726 106.9171,123.8092 235.1694,123.8092 c 128.2524,-1e-4 227.2739,74.8649 316.8582,88.6874 89.5842,13.8226 148.3956,-49.8661 148.3956,-49.8661 v 321.7791 c -109.8805,20.2963 -89.77,59.1286 -90.8199,92.8976 -1.0497,33.7691 -11.0121,75.5648 -56.1541,68.566 -30.2698,-4.7241 -39.893,1.0827 -55.9901,12.6306 -16.0972,11.548 -30.4556,-11.373 -30.4556,-11.373 l -7.5455,13.2867 c -3.4995,6.299 -10.8263,9.4484 -17.825,7.8737 -2.7994,-0.6999 -6.1349,-1.4217 -10.3341,-2.2965 -13.8227,-2.7995 -25.8736,3.3244 -30.0729,14.8724 -3.6743,10.323 -8.9234,17.7156 -13.9975,22.9647 -6.6488,6.9987 -18.4045,6.9987 -26.6281,1.7496 -30.0947,-19.0715 -63.142,-38.69 -84.3132,-52.1626 -31.3195,-19.9465 -48.1384,12.2697 -81.9075,2.2964 C 78.02529,630.8697 0,557.5357 0,372.5934 Z" /></g></g></g></g></svg>